<mxfile host="app.diagrams.net" modified="2024-07-14T17:30:11.363Z" agent="Mozilla/5.0 (Windows NT 10.0; Win64; x64) AppleWebKit/537.36 (KHTML, like Gecko) Chrome/126.0.0.0 Safari/537.36" etag="ZwkKac-7nVxogwyBrcEV" version="24.6.5" type="google">
  <diagram name="Page-1" id="WbsPFyrjvi7jCKuDYsKG">
    <mxGraphModel grid="1" page="1" gridSize="10" guides="1" tooltips="1" connect="1" arrows="1" fold="1" pageScale="1" pageWidth="850" pageHeight="1100" math="0" shadow="0">
      <root>
        <mxCell id="0" />
        <mxCell id="1" parent="0" />
        <mxCell id="e6h-Qh3uGf1CY6FK5wsZ-36" value="" style="ellipse;whiteSpace=wrap;html=1;" vertex="1" parent="1">
          <mxGeometry x="435" y="439" width="185" height="180" as="geometry" />
        </mxCell>
        <mxCell id="e6h-Qh3uGf1CY6FK5wsZ-32" value="" style="ellipse;whiteSpace=wrap;html=1;" vertex="1" parent="1">
          <mxGeometry x="34" y="280" width="210" height="120" as="geometry" />
        </mxCell>
        <mxCell id="e6h-Qh3uGf1CY6FK5wsZ-28" value="" style="ellipse;whiteSpace=wrap;html=1;" vertex="1" parent="1">
          <mxGeometry x="430" y="134" width="190" height="286" as="geometry" />
        </mxCell>
        <mxCell id="e6h-Qh3uGf1CY6FK5wsZ-27" value="" style="ellipse;whiteSpace=wrap;html=1;" vertex="1" parent="1">
          <mxGeometry x="233" y="21" width="197" height="259" as="geometry" />
        </mxCell>
        <mxCell id="e6h-Qh3uGf1CY6FK5wsZ-26" value="" style="ellipse;whiteSpace=wrap;html=1;" vertex="1" parent="1">
          <mxGeometry x="26" y="16" width="200" height="260" as="geometry" />
        </mxCell>
        <mxCell id="e6h-Qh3uGf1CY6FK5wsZ-8" style="edgeStyle=orthogonalEdgeStyle;rounded=0;orthogonalLoop=1;jettySize=auto;html=1;entryX=0.5;entryY=0;entryDx=0;entryDy=0;" edge="1" parent="1" source="e6h-Qh3uGf1CY6FK5wsZ-1" target="e6h-Qh3uGf1CY6FK5wsZ-6">
          <mxGeometry relative="1" as="geometry" />
        </mxCell>
        <mxCell id="e6h-Qh3uGf1CY6FK5wsZ-1" value="data collection (historical and live)" style="rounded=0;whiteSpace=wrap;html=1;" vertex="1" parent="1">
          <mxGeometry x="65" y="56" width="120" height="60" as="geometry" />
        </mxCell>
        <mxCell id="e6h-Qh3uGf1CY6FK5wsZ-10" value="" style="edgeStyle=orthogonalEdgeStyle;rounded=0;orthogonalLoop=1;jettySize=auto;html=1;" edge="1" parent="1" source="e6h-Qh3uGf1CY6FK5wsZ-6" target="e6h-Qh3uGf1CY6FK5wsZ-9">
          <mxGeometry relative="1" as="geometry" />
        </mxCell>
        <mxCell id="e6h-Qh3uGf1CY6FK5wsZ-12" value="" style="edgeStyle=orthogonalEdgeStyle;rounded=0;orthogonalLoop=1;jettySize=auto;html=1;" edge="1" parent="1" source="e6h-Qh3uGf1CY6FK5wsZ-6" target="e6h-Qh3uGf1CY6FK5wsZ-11">
          <mxGeometry relative="1" as="geometry" />
        </mxCell>
        <mxCell id="e6h-Qh3uGf1CY6FK5wsZ-6" value="mapping the data&amp;nbsp;" style="rounded=0;whiteSpace=wrap;html=1;" vertex="1" parent="1">
          <mxGeometry x="65" y="178" width="120" height="60" as="geometry" />
        </mxCell>
        <mxCell id="e6h-Qh3uGf1CY6FK5wsZ-14" value="" style="edgeStyle=orthogonalEdgeStyle;rounded=0;orthogonalLoop=1;jettySize=auto;html=1;" edge="1" parent="1" source="e6h-Qh3uGf1CY6FK5wsZ-9" target="e6h-Qh3uGf1CY6FK5wsZ-13">
          <mxGeometry relative="1" as="geometry" />
        </mxCell>
        <mxCell id="e6h-Qh3uGf1CY6FK5wsZ-9" value="create dataset for recognation and classification" style="whiteSpace=wrap;html=1;rounded=0;" vertex="1" parent="1">
          <mxGeometry x="272" y="178" width="120" height="60" as="geometry" />
        </mxCell>
        <mxCell id="e6h-Qh3uGf1CY6FK5wsZ-17" style="edgeStyle=orthogonalEdgeStyle;rounded=0;orthogonalLoop=1;jettySize=auto;html=1;entryX=0;entryY=0.5;entryDx=0;entryDy=0;" edge="1" parent="1" source="e6h-Qh3uGf1CY6FK5wsZ-11" target="e6h-Qh3uGf1CY6FK5wsZ-15">
          <mxGeometry relative="1" as="geometry" />
        </mxCell>
        <mxCell id="e6h-Qh3uGf1CY6FK5wsZ-11" value="create live data, crop to recognize pattern" style="whiteSpace=wrap;html=1;rounded=0;" vertex="1" parent="1">
          <mxGeometry x="65" y="316" width="120" height="60" as="geometry" />
        </mxCell>
        <mxCell id="e6h-Qh3uGf1CY6FK5wsZ-16" value="" style="edgeStyle=orthogonalEdgeStyle;rounded=0;orthogonalLoop=1;jettySize=auto;html=1;" edge="1" parent="1" source="e6h-Qh3uGf1CY6FK5wsZ-13" target="e6h-Qh3uGf1CY6FK5wsZ-15">
          <mxGeometry relative="1" as="geometry" />
        </mxCell>
        <mxCell id="e6h-Qh3uGf1CY6FK5wsZ-13" value="training ML model for pattern classifications" style="whiteSpace=wrap;html=1;rounded=0;" vertex="1" parent="1">
          <mxGeometry x="465" y="178" width="120" height="60" as="geometry" />
        </mxCell>
        <mxCell id="e6h-Qh3uGf1CY6FK5wsZ-35" value="" style="edgeStyle=orthogonalEdgeStyle;rounded=0;orthogonalLoop=1;jettySize=auto;html=1;" edge="1" parent="1" source="e6h-Qh3uGf1CY6FK5wsZ-15" target="e6h-Qh3uGf1CY6FK5wsZ-34">
          <mxGeometry relative="1" as="geometry" />
        </mxCell>
        <mxCell id="e6h-Qh3uGf1CY6FK5wsZ-15" value="predict pattern, probability, and commands (stop loss, take profit, [market optional])" style="rounded=0;whiteSpace=wrap;html=1;" vertex="1" parent="1">
          <mxGeometry x="465" y="309" width="120" height="74" as="geometry" />
        </mxCell>
        <mxCell id="e6h-Qh3uGf1CY6FK5wsZ-19" style="edgeStyle=orthogonalEdgeStyle;rounded=0;orthogonalLoop=1;jettySize=auto;html=1;entryX=0.5;entryY=0;entryDx=0;entryDy=0;" edge="1" parent="1" source="e6h-Qh3uGf1CY6FK5wsZ-18" target="e6h-Qh3uGf1CY6FK5wsZ-9">
          <mxGeometry relative="1" as="geometry" />
        </mxCell>
        <mxCell id="e6h-Qh3uGf1CY6FK5wsZ-18" value="choose and describe the patterns" style="rounded=0;whiteSpace=wrap;html=1;" vertex="1" parent="1">
          <mxGeometry x="272" y="58" width="120" height="60" as="geometry" />
        </mxCell>
        <mxCell id="e6h-Qh3uGf1CY6FK5wsZ-21" value="" style="endArrow=classic;html=1;rounded=0;entryX=0.25;entryY=1;entryDx=0;entryDy=0;exitX=0.479;exitY=1.026;exitDx=0;exitDy=0;exitPerimeter=0;" edge="1" parent="1">
          <mxGeometry relative="1" as="geometry">
            <mxPoint x="329.4799999999998" y="239.55999999999995" as="sourcePoint" />
            <mxPoint x="495" y="238" as="targetPoint" />
            <Array as="points">
              <mxPoint x="330" y="270" />
              <mxPoint x="495" y="270" />
            </Array>
          </mxGeometry>
        </mxCell>
        <mxCell id="e6h-Qh3uGf1CY6FK5wsZ-22" value="test model" style="edgeLabel;resizable=0;html=1;;align=center;verticalAlign=middle;" connectable="0" vertex="1" parent="e6h-Qh3uGf1CY6FK5wsZ-21">
          <mxGeometry relative="1" as="geometry">
            <mxPoint x="-9" y="-4" as="offset" />
          </mxGeometry>
        </mxCell>
        <mxCell id="e6h-Qh3uGf1CY6FK5wsZ-29" value="data collection" style="text;html=1;align=center;verticalAlign=middle;whiteSpace=wrap;rounded=0;fontStyle=1" vertex="1" parent="1">
          <mxGeometry x="95" y="16" width="60" height="30" as="geometry" />
        </mxCell>
        <mxCell id="e6h-Qh3uGf1CY6FK5wsZ-30" value="&lt;b&gt;seed dataset&lt;/b&gt;" style="text;html=1;align=center;verticalAlign=middle;whiteSpace=wrap;rounded=0;" vertex="1" parent="1">
          <mxGeometry x="302" y="21" width="60" height="30" as="geometry" />
        </mxCell>
        <mxCell id="e6h-Qh3uGf1CY6FK5wsZ-31" value="&lt;b&gt;ML&lt;/b&gt;" style="text;html=1;align=center;verticalAlign=middle;whiteSpace=wrap;rounded=0;" vertex="1" parent="1">
          <mxGeometry x="495" y="134" width="60" height="30" as="geometry" />
        </mxCell>
        <mxCell id="e6h-Qh3uGf1CY6FK5wsZ-33" value="&lt;b&gt;live data maping&lt;/b&gt;" style="text;html=1;align=center;verticalAlign=middle;whiteSpace=wrap;rounded=0;" vertex="1" parent="1">
          <mxGeometry x="135" y="284" width="60" height="30" as="geometry" />
        </mxCell>
        <mxCell id="e6h-Qh3uGf1CY6FK5wsZ-38" style="edgeStyle=orthogonalEdgeStyle;rounded=0;orthogonalLoop=1;jettySize=auto;html=1;entryX=1;entryY=0.5;entryDx=0;entryDy=0;" edge="1" parent="1" source="e6h-Qh3uGf1CY6FK5wsZ-34" target="e6h-Qh3uGf1CY6FK5wsZ-13">
          <mxGeometry relative="1" as="geometry">
            <mxPoint x="710" y="210" as="targetPoint" />
            <Array as="points">
              <mxPoint x="670" y="554" />
              <mxPoint x="670" y="208" />
            </Array>
          </mxGeometry>
        </mxCell>
        <mxCell id="e6h-Qh3uGf1CY6FK5wsZ-34" value="trade, calculate how much money to put in this position" style="whiteSpace=wrap;html=1;rounded=0;" vertex="1" parent="1">
          <mxGeometry x="465" y="524" width="120" height="60" as="geometry" />
        </mxCell>
        <mxCell id="e6h-Qh3uGf1CY6FK5wsZ-37" value="live trading" style="text;html=1;align=center;verticalAlign=middle;whiteSpace=wrap;rounded=0;fontStyle=1" vertex="1" parent="1">
          <mxGeometry x="526" y="453" width="60" height="30" as="geometry" />
        </mxCell>
        <mxCell id="e6h-Qh3uGf1CY6FK5wsZ-39" value="moitoring and feedback" style="text;html=1;align=center;verticalAlign=middle;whiteSpace=wrap;rounded=0;fontStyle=1" vertex="1" parent="1">
          <mxGeometry x="670" y="360" width="60" height="30" as="geometry" />
        </mxCell>
      </root>
    </mxGraphModel>
  </diagram>
</mxfile>
